<?xml version="1.0" encoding="UTF-8"?>
<svg width="18px" height="24px" viewBox="0 0 18 24" version="1.1" xmlns="http://www.w3.org/2000/svg" xmlns:xlink="http://www.w3.org/1999/xlink">
    <!-- Generator: Sketch 55.2 (78181) - https://sketchapp.com -->
    <title>icon / doc</title>
    <desc>Created with Sketch.</desc>
    <g id="Site" stroke="none" stroke-width="1" fill="none" fill-rule="evenodd">
        <g id="Final---Home" transform="translate(-829.000000, -55.000000)" fill="#919EAB" fill-rule="nonzero">
            <path d="M846.90961,61.5392208 C846.865974,61.3584416 846.784935,61.2275325 846.691429,61.1153247 L841.473766,55.398961 C841.355325,55.2680519 841.218182,55.2057143 841.062338,55.1246753 C840.881558,55.0311688 840.682078,55.0249351 840.476364,55.0249351 L830.508571,55.0249351 C829.735584,55.0249351 829.031169,55.6233766 829.031169,56.4524675 L829.031169,77.3480519 C829.031169,78.1833766 829.735584,78.9625974 830.508571,78.9625974 L845.662857,78.9625974 C846.435844,78.9625974 846.984416,78.1833766 846.984416,77.3480519 L846.984416,62.1314286 C846.984416,61.907013 846.959481,61.7449351 846.90961,61.5392208 Z M841.062338,57.9298701 L844.677922,61.8883117 L841.062338,61.8883117 L841.062338,57.9298701 Z M831.025974,76.974026 L831.025974,57.025974 L839.067532,57.025974 L839.067532,62.118961 C839.067532,63.0415584 839.902857,63.8831169 840.819221,63.8831169 L844.98961,63.8831169 L844.98961,76.974026 L831.025974,76.974026 Z M835,67 C834.447715,67 834,67.4477153 834,68 C834,68.5522847 834.447715,69 835,69 L841,69 C841.552285,69 842,68.5522847 842,68 C842,67.4477153 841.552285,67 841,67 L835,67 Z M835,71 C834.447715,71 834,71.4477153 834,72 C834,72.5522847 834.447715,73 835,73 L841,73 C841.552285,73 842,72.5522847 842,72 C842,71.4477153 841.552285,71 841,71 L835,71 Z" id="icon-/-doc"></path>
        </g>
    </g>
</svg>