<?xml version="1.0" encoding="UTF-8"?>
<svg width="24px" height="24px" viewBox="0 0 24 24" version="1.1" xmlns="http://www.w3.org/2000/svg" xmlns:xlink="http://www.w3.org/1999/xlink">
    <!-- Generator: Sketch 55.2 (78181) - https://sketchapp.com -->
    <title>icon / dribbble</title>
    <desc>Created with Sketch.</desc>
    <g id="Page-1" stroke="none" stroke-width="1" fill="none" fill-rule="evenodd">
        <g id="Final---Home" transform="translate(-871.000000, -56.000000)" fill="#919EAB" fill-rule="nonzero">
            <path d="M883,56 C876.372583,56 871,61.372583 871,68 C871,74.627417 876.372583,80 883,80 C889.627417,80 895,74.627417 895,68 C895,61.372583 889.627417,56 883,56 Z M892.991613,67.8344667 C891.527502,67.4627998 890.02393,67.2689574 888.513427,67.2571333 C887.749329,67.2558102 886.986206,67.31174 886.230467,67.4244533 C886.170813,67.43348 886.114667,67.45204 886.055253,67.4617867 C885.803787,66.8585956 885.538218,66.2631111 885.258547,65.6753333 C887.369533,64.7860067 889.251299,63.4294353 890.762213,61.70772 C892.172546,63.4415147 892.957885,65.5997533 892.991613,67.8344667 Z M889.304947,60.2473067 C887.959486,61.828631 886.260448,63.0707801 884.34548,63.87312 C883.279277,61.9105979 882.049556,60.0414351 880.669373,58.28548 C883.696215,57.5418951 886.896479,58.26893 889.304947,60.2473067 L889.304947,60.2473067 Z M878.659827,59.00488 C880.079545,60.7452101 881.341525,62.6084656 882.430827,64.5725867 C879.579126,65.3681864 876.626752,65.744204 873.666667,65.6888 C873.536213,65.6888 873.412187,65.6782267 873.284173,65.6742267 C873.9882,62.7589121 875.960513,60.3119458 878.659827,59.00488 L878.659827,59.00488 Z M873,68 C873,67.8862267 873.013267,67.77588 873.017093,67.663 C873.23348,67.6718667 873.44548,67.6888 873.666667,67.6888 C876.948479,67.7492294 880.220212,67.3070439 883.36824,66.3776 C883.615147,66.8888267 883.848387,67.4077067 884.072667,67.9313867 C880.525116,69.0796988 877.485201,71.422041 875.470453,74.55964 C873.878377,72.7452487 873.000343,70.4138608 873,68 L873,68 Z M876.945147,75.94 C878.741517,73.0088835 881.535659,70.824795 884.8138,69.7893333 C885.69607,72.2168031 886.324826,74.7290394 886.690027,77.28592 C883.432525,78.5941293 879.726091,78.0822128 876.945147,75.94 L876.945147,75.94 Z M888.5664,76.3025467 C888.18554,73.9468365 887.592774,71.6303223 886.79532,69.3812133 C887.383174,69.3051461 887.975352,69.2673864 888.568107,69.2681613 C890.00485,69.2807371 891.434078,69.477128 892.82096,69.85256 C892.322461,72.4850178 890.790126,74.8080443 888.5664,76.3025467 L888.5664,76.3025467 Z" id="icon-/-dribbble"></path>
        </g>
    </g>
</svg>