<?xml version="1.0" encoding="UTF-8"?>
<svg width="25px" height="24px" viewBox="0 0 25 24" version="1.1" xmlns="http://www.w3.org/2000/svg" xmlns:xlink="http://www.w3.org/1999/xlink">
    <!-- Generator: Sketch 55.2 (78181) - https://sketchapp.com -->
    <title>icon / github</title>
    <desc>Created with Sketch.</desc>
    <g id="Page-1" stroke="none" stroke-width="1" fill="none" fill-rule="evenodd">
        <g id="Final---Home" transform="translate(-967.000000, -56.000000)" fill="#919EAB" fill-rule="nonzero">
            <path d="M979.5,56 C972.596924,56 967,61.5088768 967,68.3033585 C967,73.7401454 970.58125,78.3509011 975.54873,79.9774195 C976.173584,80.0900721 976.401709,79.7100858 976.401709,79.3856808 C976.401709,79.0928032 976.390259,78.1226161 976.384155,77.0953337 C972.908203,77.8387498 972.173486,75.6445227 972.173486,75.6445227 C971.604346,74.2237491 970.785693,73.8452766 970.785693,73.8452766 C969.649683,73.0823242 970.871875,73.097343 970.871875,73.097343 C972.126904,73.1829378 972.787646,74.3649253 972.787646,74.3649253 C973.903076,76.2452726 975.714282,75.7015939 976.425342,75.3862002 C976.538965,74.5932103 976.862451,74.0495316 977.218799,73.7431491 C974.443994,73.4322731 971.525,72.376443 971.525,67.662046 C971.525,66.317856 972.012524,65.2215114 972.810547,64.3601802 C972.68313,64.0477902 972.252832,62.7959715 972.934131,61.1026257 C972.934131,61.1026257 973.982422,60.7722133 976.371924,62.3642006 C977.368311,62.0901144 978.437207,61.9549457 979.499976,61.950428 C980.561987,61.9549457 981.631616,62.0916043 982.629565,62.3656904 C985.014526,60.7722133 986.064331,61.1041156 986.064331,61.1041156 C986.747925,62.7989753 986.317627,64.0492801 986.189453,64.3601802 C986.990527,65.2215114 987.474243,66.31788 987.474243,67.662046 C987.474243,72.388458 984.550659,73.4292453 981.765942,73.7341379 C982.216089,74.1156141 982.614331,74.8635477 982.614331,76.0109801 C982.614331,77.6555451 982.597534,78.9816885 982.597534,79.3871947 C982.597534,79.7146034 982.824878,80.0975695 983.45813,79.9774195 C988.421826,78.3478973 992,73.7371416 992,68.3033585 C992,61.5088768 986.403076,56 979.5,56 Z" id="icon-/-github"></path>
        </g>
    </g>
</svg>