<?xml version="1.0" encoding="UTF-8"?>
<svg width="24px" height="24px" viewBox="0 0 24 24" version="1.1" xmlns="http://www.w3.org/2000/svg" xmlns:xlink="http://www.w3.org/1999/xlink">
    <!-- Generator: Sketch 55.2 (78181) - https://sketchapp.com -->
    <title>icon / linkedin</title>
    <desc>Created with Sketch.</desc>
    <g id="Page-1" stroke="none" stroke-width="1" fill="none" fill-rule="evenodd">
        <g id="Final---Home" transform="translate(-919.000000, -55.000000)" fill="#919EAB" fill-rule="nonzero">
            <path d="M941.225675,55 L920.772868,55 C919.79393,55 919,55.7701154 919,56.7192489 L919,77.2812337 C919,78.2298846 919.79393,79 920.772868,79 L941.225675,79 C942.20607,79 943,78.2294021 943,77.2812337 L943,56.7192489 C943,55.7696329 942.205584,55 941.225675,55 Z M926.274537,75.091037 L922.649651,75.091037 L922.649651,64.2539306 L926.274537,64.2539306 L926.274537,75.091037 Z M924.462337,62.7735333 L924.438058,62.7735333 C923.222155,62.7735333 922.435508,61.9411717 922.435508,60.9013229 C922.435508,59.8383128 923.246434,59.0291125 924.486131,59.0291125 C925.726313,59.0291125 926.489165,59.8383128 926.513445,60.9013229 C926.513445,61.9411717 925.725827,62.7735333 924.462337,62.7735333 Z M939.345979,75.091037 L935.721093,75.091037 L935.721093,69.2920101 C935.721093,67.8357393 935.196662,66.8417307 933.885099,66.8417307 C932.883824,66.8417307 932.287527,67.5119627 932.024825,68.1595159 C931.929165,68.390647 931.905857,68.7139411 931.905857,69.0382002 L931.905857,75.0905545 L928.280971,75.0905545 C928.280971,75.0905545 928.328558,65.2691705 928.280971,64.2534481 L931.905857,64.2534481 L931.905857,65.787406 C932.387557,65.0491375 933.248983,63.997708 935.173354,63.997708 C937.558058,63.997708 939.346464,65.5471068 939.346464,68.8760706 L939.346464,75.091037 L939.345979,75.091037 Z" id="icon-/-linkedin"></path>
        </g>
    </g>
</svg>